<mxfile host="65bd71144e">
    <diagram id="nQTjvRek8TaVpFzdT1Jk" name="Page-1">
        <mxGraphModel dx="2187" dy="768" grid="1" gridSize="10" guides="1" tooltips="1" connect="1" arrows="1" fold="1" page="1" pageScale="1" pageWidth="850" pageHeight="1100" math="0" shadow="0">
            <root>
                <mxCell id="0"/>
                <mxCell id="1" parent="0"/>
                <mxCell id="58" value="" style="edgeStyle=none;html=1;labelBackgroundColor=none;fontColor=#FFFFFF;" parent="1" source="2" edge="1">
                    <mxGeometry relative="1" as="geometry">
                        <mxPoint x="-119" y="290" as="targetPoint"/>
                    </mxGeometry>
                </mxCell>
                <mxCell id="2" value="Start" style="strokeWidth=2;html=1;shape=mxgraph.flowchart.start_1;whiteSpace=wrap;fillColor=#6d8764;strokeColor=#3A5431;fontColor=#000000;fontStyle=1" parent="1" vertex="1">
                    <mxGeometry x="-168.75" y="160" width="100" height="60" as="geometry"/>
                </mxCell>
                <mxCell id="7" value="End" style="strokeWidth=2;html=1;shape=mxgraph.flowchart.start_1;whiteSpace=wrap;fontStyle=1;labelBackgroundColor=none;fillColor=#6d8764;strokeColor=#3A5431;fontColor=#000000;" parent="1" vertex="1">
                    <mxGeometry x="-168.75" y="1160" width="100" height="60" as="geometry"/>
                </mxCell>
                <mxCell id="15" value="" style="group;fontStyle=1;fontColor=#333333;labelBackgroundColor=none;fillColor=#f5f5f5;strokeColor=#666666;" parent="1" vertex="1" connectable="0">
                    <mxGeometry x="-210" y="295" width="182.5" height="70" as="geometry"/>
                </mxCell>
                <mxCell id="13" value="" style="verticalLabelPosition=bottom;verticalAlign=top;html=1;shape=process;whiteSpace=wrap;rounded=1;size=0.14;arcSize=6;fontStyle=1;fontColor=#333333;labelBackgroundColor=none;fillColor=#f5f5f5;strokeColor=#666666;" parent="15" vertex="1">
                    <mxGeometry width="182.5" height="70" as="geometry"/>
                </mxCell>
                <mxCell id="14" value="format_strings(*args)" style="text;html=1;strokeColor=none;fillColor=none;align=center;verticalAlign=middle;whiteSpace=wrap;rounded=0;fontStyle=1;fontColor=#000000;labelBackgroundColor=none;" parent="15" vertex="1">
                    <mxGeometry x="50.69444444444444" y="20" width="81.11111111111111" height="30" as="geometry"/>
                </mxCell>
                <mxCell id="69" value="" style="edgeStyle=none;html=1;" edge="1" parent="1" source="21" target="68">
                    <mxGeometry relative="1" as="geometry"/>
                </mxCell>
                <mxCell id="21" value="&lt;div&gt;for_matter = ''.join(str(arg).upper() for arg in args)&lt;/div&gt;" style="rounded=1;whiteSpace=wrap;html=1;fontStyle=1;labelBackgroundColor=none;fillColor=#ffe6cc;strokeColor=#d79b00;fontColor=#000000;" parent="1" vertex="1">
                    <mxGeometry x="343.74" y="530" width="387.5" height="80" as="geometry"/>
                </mxCell>
                <mxCell id="22" value="" style="edgeStyle=none;html=1;fontStyle=1;fontColor=#000000;labelBackgroundColor=none;" parent="1" edge="1">
                    <mxGeometry relative="1" as="geometry">
                        <mxPoint x="537.4991025641026" y="460" as="sourcePoint"/>
                        <mxPoint x="537.4973076923075" y="530" as="targetPoint"/>
                    </mxGeometry>
                </mxCell>
                <mxCell id="32" value="return for_matter" style="strokeWidth=2;html=1;shape=mxgraph.flowchart.start_1;whiteSpace=wrap;fontStyle=1;fontColor=#000000;labelBackgroundColor=none;fillColor=#6d8764;strokeColor=#3A5431;" parent="1" vertex="1">
                    <mxGeometry x="466.24" y="860" width="142.5" height="60" as="geometry"/>
                </mxCell>
                <mxCell id="33" value="format_strings(args)" style="strokeWidth=2;html=1;shape=mxgraph.flowchart.start_1;whiteSpace=wrap;fontStyle=1;fontColor=#000000;labelBackgroundColor=none;fillColor=#6d8764;strokeColor=#3A5431;" parent="1" vertex="1">
                    <mxGeometry x="473.75" y="390" width="127.5" height="70" as="geometry"/>
                </mxCell>
                <mxCell id="42" value="" style="edgeStyle=none;html=1;fontStyle=1;fontColor=#000000;labelBackgroundColor=none;" parent="1" source="35" target="36" edge="1">
                    <mxGeometry relative="1" as="geometry"/>
                </mxCell>
                <mxCell id="35" value="&lt;div&gt;if __name__ == '__main__':&lt;/div&gt;" style="rounded=1;whiteSpace=wrap;html=1;fontStyle=1;labelBackgroundColor=none;fillColor=#ffe6cc;strokeColor=#d79b00;fontColor=#000000;" parent="1" vertex="1">
                    <mxGeometry x="-263.13" y="430" width="288.75" height="60" as="geometry"/>
                </mxCell>
                <mxCell id="43" value="" style="edgeStyle=none;html=1;fontStyle=1;fontColor=#000000;labelBackgroundColor=none;" parent="1" source="36" edge="1">
                    <mxGeometry relative="1" as="geometry">
                        <mxPoint x="-118.75000000000023" y="640" as="targetPoint"/>
                    </mxGeometry>
                </mxCell>
                <mxCell id="36" value="result = format_strings([&amp;quot;Hello&amp;quot;, &amp;quot;world&amp;quot;, &amp;quot;this&amp;quot;, &amp;quot;is&amp;quot;, &amp;quot;a&amp;quot;, &amp;quot;test&amp;quot;])" style="rounded=1;fontStyle=1;labelBackgroundColor=none;fillColor=#ffe6cc;strokeColor=#d79b00;fillStyle=solid;fontColor=#000000;whiteSpace=wrap;labelBorderColor=none;html=1;" parent="1" vertex="1">
                    <mxGeometry x="-288.75" y="540" width="340" height="60" as="geometry"/>
                </mxCell>
                <mxCell id="44" value="" style="edgeStyle=none;html=1;fontStyle=1;fontColor=#000000;labelBackgroundColor=none;" parent="1" target="38" edge="1">
                    <mxGeometry relative="1" as="geometry">
                        <mxPoint x="-118.74849999999992" y="700" as="sourcePoint"/>
                    </mxGeometry>
                </mxCell>
                <mxCell id="45" value="" style="edgeStyle=none;html=1;fontStyle=1;fontColor=#000000;labelBackgroundColor=none;" parent="1" source="38" edge="1">
                    <mxGeometry relative="1" as="geometry">
                        <mxPoint x="-118.74849999999992" y="840" as="targetPoint"/>
                    </mxGeometry>
                </mxCell>
                <mxCell id="38" value="result = format_strings([&quot;Python&quot;, &quot;is&quot;, &quot;fun&quot;])" style="rounded=1;whiteSpace=wrap;html=1;fontStyle=1;labelBackgroundColor=none;fillColor=#ffe6cc;strokeColor=#d79b00;fontColor=#000000;" parent="1" vertex="1">
                    <mxGeometry x="-254.37" y="740" width="271.25" height="60" as="geometry"/>
                </mxCell>
                <mxCell id="46" value="" style="edgeStyle=none;html=1;fontStyle=1;fontColor=#000000;labelBackgroundColor=none;" parent="1" target="40" edge="1">
                    <mxGeometry relative="1" as="geometry">
                        <mxPoint x="-118.7515000000003" y="900" as="sourcePoint"/>
                    </mxGeometry>
                </mxCell>
                <mxCell id="47" value="" style="edgeStyle=none;html=1;fontStyle=1;fontColor=#000000;labelBackgroundColor=none;" parent="1" source="40" edge="1">
                    <mxGeometry relative="1" as="geometry">
                        <mxPoint x="-118.7515000000003" y="1040" as="targetPoint"/>
                    </mxGeometry>
                </mxCell>
                <mxCell id="40" value="result = format_strings([&quot;Hello World&quot;])" style="rounded=1;whiteSpace=wrap;html=1;fontStyle=1;labelBackgroundColor=none;fillColor=#ffe6cc;strokeColor=#d79b00;fontColor=#000000;" parent="1" vertex="1">
                    <mxGeometry x="-234.38" y="940" width="231.25" height="60" as="geometry"/>
                </mxCell>
                <mxCell id="48" value="" style="edgeStyle=none;html=1;fontStyle=1;fontColor=#000000;labelBackgroundColor=none;" parent="1" target="7" edge="1">
                    <mxGeometry relative="1" as="geometry">
                        <mxPoint x="-118.75000000000023" y="1100" as="sourcePoint"/>
                    </mxGeometry>
                </mxCell>
                <mxCell id="50" value="" style="edgeStyle=none;html=1;fontStyle=1;fontColor=#000000;labelBackgroundColor=none;" parent="1" source="13" target="35" edge="1">
                    <mxGeometry relative="1" as="geometry"/>
                </mxCell>
                <mxCell id="70" value="" style="edgeStyle=none;html=1;" edge="1" parent="1" source="68" target="32">
                    <mxGeometry relative="1" as="geometry"/>
                </mxCell>
                <mxCell id="68" value="&lt;div&gt;for_matter = for_matter.replace(' ', '-')&lt;/div&gt;" style="rounded=1;whiteSpace=wrap;html=1;fontStyle=1;labelBackgroundColor=none;fillColor=#ffe6cc;strokeColor=#d79b00;fontColor=#000000;" vertex="1" parent="1">
                    <mxGeometry x="343.74" y="700" width="387.5" height="80" as="geometry"/>
                </mxCell>
                <mxCell id="71" value="&lt;span style=&quot;color: rgb(0, 0, 0); font-weight: 700;&quot;&gt;print(result)&lt;/span&gt;" style="strokeWidth=2;html=1;shape=mxgraph.flowchart.display;whiteSpace=wrap;fillColor=#e3c800;fontColor=#000000;strokeColor=#B09500;" vertex="1" parent="1">
                    <mxGeometry x="-253.12" y="640" width="263.12" height="70" as="geometry"/>
                </mxCell>
                <mxCell id="72" value="&lt;span style=&quot;color: rgb(0, 0, 0); font-weight: 700;&quot;&gt;print(result)&lt;/span&gt;" style="strokeWidth=2;html=1;shape=mxgraph.flowchart.display;whiteSpace=wrap;fillColor=#e3c800;fontColor=#000000;strokeColor=#B09500;" vertex="1" parent="1">
                    <mxGeometry x="-256.56" y="840" width="270" height="70" as="geometry"/>
                </mxCell>
                <mxCell id="73" value="&lt;span style=&quot;color: rgb(0, 0, 0); font-weight: 700;&quot;&gt;print(result)&lt;/span&gt;" style="strokeWidth=2;html=1;shape=mxgraph.flowchart.display;whiteSpace=wrap;fillColor=#e3c800;fontColor=#000000;strokeColor=#B09500;" vertex="1" parent="1">
                    <mxGeometry x="-253.74" y="1040" width="270" height="70" as="geometry"/>
                </mxCell>
            </root>
        </mxGraphModel>
    </diagram>
</mxfile>